<svg xmlns="http://www.w3.org/2000/svg" width="209.97" height="35" viewBox="0 0 209.97 35"><rect class="svg__rect" x="0" y="0" width="115.31" height="35" fill="#31C4F3"/><rect class="svg__rect" x="113.31" y="0" width="96.66" height="35" fill="#FF710D"/><path class="svg__text" d="M15.69 22L14.22 22L14.22 13.47L16.14 13.47L18.60 20.01L21.06 13.47L22.97 13.47L22.97 22L21.49 22L21.49 19.19L21.64 15.43L19.12 22L18.06 22L15.55 15.43L15.69 19.19L15.69 22ZM28.49 22L26.95 22L30.17 13.47L31.50 13.47L34.73 22L33.18 22L32.49 20.01L29.18 20.01L28.49 22ZM30.83 15.28L29.60 18.82L32.07 18.82L30.83 15.28ZM41.14 22L38.69 22L38.69 13.47L41.21 13.47Q42.34 13.47 43.21 13.97Q44.09 14.48 44.57 15.40Q45.05 16.33 45.05 17.52L45.05 17.52L45.05 17.95Q45.05 19.16 44.57 20.08Q44.08 21.00 43.19 21.50Q42.30 22 41.14 22L41.14 22ZM40.17 14.66L40.17 20.82L41.14 20.82Q42.30 20.82 42.93 20.09Q43.55 19.36 43.56 17.99L43.56 17.99L43.56 17.52Q43.56 16.13 42.96 15.40Q42.35 14.66 41.21 14.66L41.21 14.66L40.17 14.66ZM55.09 22L49.51 22L49.51 13.47L55.05 13.47L55.05 14.66L51.00 14.66L51.00 17.02L54.50 17.02L54.50 18.19L51.00 18.19L51.00 20.82L55.09 20.82L55.09 22ZM66.65 22L64.68 13.47L66.15 13.47L67.47 19.88L69.10 13.47L70.34 13.47L71.96 19.89L73.27 13.47L74.74 13.47L72.77 22L71.35 22L69.73 15.77L68.07 22L66.65 22ZM80.38 22L78.90 22L78.90 13.47L80.38 13.47L80.38 22ZM86.87 14.66L84.23 14.66L84.23 13.47L91.00 13.47L91.00 14.66L88.34 14.66L88.34 22L86.87 22L86.87 14.66ZM96.24 22L94.75 22L94.75 13.47L96.24 13.47L96.24 17.02L100.05 17.02L100.05 13.47L101.53 13.47L101.53 22L100.05 22L100.05 18.21L96.24 18.21L96.24 22Z" fill="#FFFFFF"/><path class="svg__text" d="M129.70 22L127.50 22L127.50 13.60L129.45 13.60L132.41 18.45L135.29 13.60L137.24 13.60L137.27 22L135.09 22L135.06 17.55L132.90 21.17L131.85 21.17L129.70 17.67L129.70 22ZM143.85 22L141.42 22L145.13 13.60L147.47 13.60L151.19 22L148.72 22L148.06 20.37L144.51 20.37L143.85 22ZM146.28 15.93L145.20 18.61L147.36 18.61L146.28 15.93ZM157.13 15.48L154.55 15.48L154.55 13.60L162.07 13.60L162.07 15.48L159.51 15.48L159.51 22L157.13 22L157.13 15.48ZM172.83 22L166.45 22L166.45 13.60L168.82 13.60L168.82 20.11L172.83 20.11L172.83 22ZM178.67 22L176.24 22L179.95 13.60L182.29 13.60L186.01 22L183.54 22L182.88 20.37L179.33 20.37L178.67 22ZM181.11 15.93L180.02 18.61L182.18 18.61L181.11 15.93ZM194.70 22L190.16 22L190.16 13.60L194.46 13.60Q196.07 13.60 196.91 14.19Q197.75 14.79 197.75 15.79L197.75 15.79Q197.75 16.39 197.46 16.87Q197.16 17.34 196.62 17.62L196.62 17.62Q197.34 17.87 197.75 18.41Q198.16 18.94 198.16 19.70L198.16 19.70Q198.16 20.80 197.27 21.40Q196.38 22 194.70 22L194.70 22ZM192.52 18.58L192.52 20.28L194.51 20.28Q195.76 20.28 195.76 19.43L195.76 19.43Q195.76 18.58 194.51 18.58L194.51 18.58L192.52 18.58ZM192.52 15.31L192.52 16.94L194.15 16.94Q195.35 16.94 195.35 16.12L195.35 16.12Q195.35 15.31 194.15 15.31L194.15 15.31L192.52 15.31Z" fill="#FFFFFF" x="126.31"/></svg>